<svg width="80" height="80" viewBox="0 0 80 80" fill="none" xmlns="http://www.w3.org/2000/svg">
<path d="M19.4554 6.76543C19.4045 6.8337 19.3585 6.90879 19.3027 6.97433C15.2378 11.7313 12.2951 17.0515 10.961 23.1506C10.0382 27.3682 10.2138 31.5408 11.8357 35.5926C13.1189 38.8012 15.0538 41.5907 17.7052 43.8565C19.2802 45.2179 21.1656 46.1895 23.2032 46.6896C26.3285 47.4536 28.9974 46.6343 31.2577 44.4218C32.398 43.3056 33.0407 41.9095 33.5753 40.4622C35.0139 36.5647 34.9818 32.6215 33.8938 28.6558C33.3412 26.6095 32.5181 24.6426 31.4452 22.8052C29.9704 20.3004 27.7232 18.6032 25.1088 17.3403C24.8495 17.2146 24.5853 17.0993 24.2863 16.962C24.7951 16.4084 25.2893 15.8697 25.7856 15.3325C26.7837 14.2538 27.7908 13.1827 28.7757 12.0924C28.9751 11.8719 29.1179 11.8781 29.3584 12.0044C32.0028 13.3889 34.1266 15.3379 35.8594 17.7164C35.9193 17.799 35.9785 17.883 36.0427 17.9717C36.2601 17.4024 35.743 14.6129 35.0669 12.8454C34.4323 11.184 33.5787 9.61094 32.5277 8.1663L39.8713 0L47.1313 8.07687C45.1616 11.1421 43.8129 14.3931 43.548 18.1014C43.6553 17.9799 43.7167 17.9199 43.7669 17.8516C45.5589 15.411 47.8241 13.4899 50.472 11.9894C50.6331 11.8986 50.7467 11.8398 50.9119 12.0235C52.354 13.6292 53.8086 15.2239 55.2598 16.8228C55.2897 16.8555 55.3148 16.891 55.3462 16.9341C54.767 17.2228 54.1787 17.4802 53.6288 17.7977C50.1335 19.8266 47.7735 22.7412 46.5486 26.5415C45.6425 29.3269 45.1448 32.1716 45.2243 35.0983C45.3038 38.025 45.9102 40.8158 47.5865 43.2906C49.292 45.8083 51.6953 47.1197 54.8123 47.0221C56.6057 46.9655 58.2178 46.3005 59.7547 45.4335C62.0158 44.1569 63.7765 42.3792 65.2367 40.2833C67.2538 37.388 68.6248 34.2388 69.2096 30.7708C69.7881 27.3211 69.5142 23.9268 68.5321 20.5782C67.4922 17.033 65.7831 13.8046 63.605 10.8158C62.6292 9.47638 61.5321 8.2216 60.4915 6.9245C60.4308 6.84872 60.3807 6.76406 60.3256 6.68282C60.3437 6.6562 60.3618 6.62889 60.3793 6.60158C60.573 6.67804 60.7919 6.72037 60.9564 6.83643C64.2874 9.18828 67.4964 11.6787 70.267 14.6703C74.2615 18.9821 76.9498 23.9794 78.4595 29.5979C79.3373 32.8544 79.8491 36.195 79.986 39.5603C80.0689 41.6207 79.8396 43.6742 79.5587 45.7155C79.0388 49.5051 78.0804 53.1841 76.5881 56.7224C73.9576 62.9588 70.0118 68.2257 64.5174 72.3334C60.4232 75.3953 55.8501 77.4884 50.8561 78.7213C47.033 79.6582 43.098 80.084 39.1583 79.987C35.0696 79.899 31.0675 79.2497 27.2137 77.8994C15.5278 73.8033 7.41882 66.0384 2.78723 54.8C0.606309 49.5071 -0.264249 43.9616 0.0689189 38.2632C0.544275 30.157 3.31695 22.8812 8.38695 16.4357C11.3743 12.6311 14.9604 9.4559 19.0407 6.80981C19.1521 6.75029 19.2687 6.70071 19.3892 6.66166L19.4554 6.76543Z" fill="#FFF38A"/>
</svg>
